<svg width="24" height="24" viewBox="0 0 24 24" fill="none" xmlns="http://www.w3.org/2000/svg">
<path d="M12 24C18.6274 24 24 18.6274 24 12C24 5.37258 18.6274 0 12 0C5.37258 0 0 5.37258 0 12C0 18.6274 5.37258 24 12 24Z" fill="#55ACEE"/>
<path d="M19.3505 8.62412C18.8362 8.85215 18.283 9.00638 17.7029 9.07525C18.2952 8.72038 18.7498 8.15886 18.9644 7.48868C18.4101 7.81746 17.796 8.05597 17.1429 8.18453C16.6197 7.6273 15.8742 7.27905 15.0487 7.27905C13.4649 7.27905 12.1804 8.56358 12.1804 10.1474C12.1804 10.3722 12.2058 10.591 12.255 10.8011C9.87118 10.6815 7.75752 9.53965 6.34271 7.80377C6.09586 8.22732 5.95425 8.72038 5.95425 9.24596C5.95425 10.2409 6.46101 11.1192 7.23023 11.6334C6.76027 11.6186 6.31769 11.4897 5.93115 11.2743C5.93093 11.2864 5.93093 11.2986 5.93093 11.3106C5.93093 12.7004 6.92006 13.8596 8.23198 14.1229C7.99154 14.1888 7.73763 14.2236 7.47644 14.2236C7.2912 14.2236 7.11173 14.2059 6.93675 14.1725C7.30168 15.3118 8.36076 16.1411 9.6162 16.1644C8.63435 16.9339 7.39772 17.3923 6.0535 17.3923C5.82248 17.3923 5.59359 17.3788 5.36963 17.3521C6.63834 18.1662 8.14641 18.6409 9.76615 18.6409C15.0421 18.6409 17.9273 14.2703 17.9273 10.4796C17.9273 10.3553 17.9245 10.2314 17.919 10.1087C18.4798 9.70436 18.9661 9.19932 19.3505 8.62412Z" fill="#F1F2F2"/>
</svg>
